<?xml version="1.0" encoding="UTF-8"?>
<svg id="Layer_2" data-name="Layer 2" xmlns="http://www.w3.org/2000/svg" viewBox="0 0 139.95 139.95">
  <defs>
    <style>
      .cls-1 {
        fill: #f57c00;
      }
    </style>
  </defs>
  <g id="Layer_1-2" data-name="Layer 1">
    <g>
      <path class="cls-1" d="m139.95,110.93c0,16.02-12.98,29.02-29,29.02s-29.02-12.99-29.02-29.02,12.99-29,29.02-29,29,12.98,29,29Z"/>
      <path class="cls-1" d="m58.02,29c0,16.02-12.98,29.02-29,29.02S0,45.03,0,29,12.99,0,29.02,0s29,12.98,29,29Z"/>
      <path class="cls-1" d="m0,108.56c0,17.37,14.02,31.39,31.34,31.39s31.39-14.02,31.39-31.39c0-25.27,20.52-45.79,45.84-45.79,17.32,0,31.39-14.07,31.39-31.39S125.88,0,108.56,0s-31.39,14.07-31.39,31.39c0,25.32-20.52,45.84-45.84,45.84-17.32,0-31.34,14.02-31.34,31.34Z"/>
    </g>
  </g>
</svg>