<?xml version="1.0" encoding="UTF-8"?>
<svg id="Layer_2" data-name="Layer 2" xmlns="http://www.w3.org/2000/svg" viewBox="0 0 611.83 67.98">
  <defs>
    <style>
      .cls-1 {
        fill: #f57c00;
      }

      .cls-2 {
        fill: #1e1e1e;
      }
    </style>
  </defs>
  <g id="Layer_1-2" data-name="Layer 1">
    <g>
      <g>
        <path class="cls-1" d="m67.98,53.89c0,7.78-6.3,14.1-14.09,14.1s-14.1-6.31-14.1-14.1,6.31-14.09,14.1-14.09,14.09,6.3,14.09,14.09Z"/>
        <path class="cls-1" d="m28.19,14.09c0,7.78-6.3,14.1-14.09,14.1S0,21.87,0,14.09,6.31,0,14.1,0s14.09,6.3,14.09,14.09Z"/>
        <path class="cls-1" d="m0,52.74c0,8.44,6.81,15.25,15.22,15.25s15.25-6.81,15.25-15.25c0-12.28,9.97-22.24,22.27-22.24,8.41,0,15.25-6.83,15.25-15.25S61.15,0,52.74,0s-15.25,6.83-15.25,15.25c0,12.3-9.97,22.27-22.27,22.27-8.41,0-15.22,6.81-15.22,15.22Z"/>
      </g>
      <g>
        <g>
          <path class="cls-1" d="m479.02,8.61h-10.7v11.47h-10.39v8.93h10.39v15.32c0,3.69-1.82,5.54-5.46,5.54h-4.93v9h6.39c4.52,0,8.09-1.23,10.74-3.69,2.64-2.46,3.96-5.93,3.96-10.39v-15.78h7.46v-8.93h-7.46v-11.47Z"/>
          <path class="cls-2" d="m492.79,58.87V15.07h29.79v8.07h-20.4v9.26h16.27v8.13h-16.27v10.2h21.09v8.13h-30.47Z"/>
          <path class="cls-2" d="m548.77,59.37c-6.26,0-11.48-1.96-15.67-5.88-4.19-3.92-6.29-9.43-6.29-16.52s2.11-12.55,6.32-16.49c4.21-3.94,9.43-5.91,15.64-5.91,5.51,0,10.12,1.44,13.83,4.32s5.86,6.67,6.44,11.39h-9.82c-.29-2.25-1.42-4.09-3.38-5.51-1.96-1.42-4.32-2.13-7.07-2.13-3.67,0-6.68,1.25-9.01,3.75-2.34,2.5-3.5,6.03-3.5,10.57s1.17,8.06,3.5,10.54c2.33,2.48,5.34,3.72,9.01,3.72,2.79,0,5.18-.7,7.16-2.1,1.98-1.4,3.16-3.22,3.54-5.47h9.39c-.42,4.71-2.47,8.51-6.16,11.39-3.69,2.88-8.33,4.32-13.92,4.32Z"/>
          <path class="cls-2" d="m602.39,15.07h9.45v43.8h-9.45v-18.33h-18.02v18.33h-9.39V15.07h9.39v17.4h18.02V15.07Z"/>
        </g>
        <g>
          <path class="cls-2" d="m118.69,55.68c-3.01,2.41-7.01,3.61-11.99,3.61s-9.01-1.4-12.08-4.21c-3.08-2.8-4.72-6.55-4.93-11.24h9.04c.21,2.26,1.01,4.04,2.42,5.34,1.4,1.3,3.25,1.95,5.56,1.95,2.13,0,3.84-.44,5.12-1.32,1.28-.88,1.91-2.13,1.91-3.77,0-1.13-.42-2.07-1.25-2.83-.84-.75-1.93-1.34-3.26-1.76-1.34-.42-2.82-.81-4.43-1.16s-3.23-.83-4.86-1.41c-1.63-.59-3.12-1.33-4.46-2.23-1.34-.9-2.43-2.19-3.26-3.86-.84-1.67-1.26-3.68-1.26-6.03,0-3.64,1.42-6.62,4.27-8.95,2.85-2.32,6.49-3.48,10.92-3.48,4.73,0,8.57,1.25,11.52,3.77s4.49,5.86,4.61,10.04h-8.98c-.17-1.76-.88-3.15-2.13-4.17-1.26-1.02-2.93-1.54-5.02-1.54-1.84,0-3.31.4-4.39,1.19-1.09.8-1.63,1.84-1.63,3.14,0,1.42.57,2.56,1.73,3.42,1.15.86,2.57,1.44,4.27,1.76,1.69.31,3.55.75,5.56,1.32,2.01.57,3.86,1.22,5.56,1.98,1.7.75,3.12,2.04,4.27,3.86,1.15,1.82,1.73,4.09,1.73,6.81,0,4.1-1.51,7.36-4.52,9.76Z"/>
          <path class="cls-2" d="m165.37,52.89c-4.25,4.27-9.6,6.4-16.04,6.4s-11.8-2.13-16.07-6.4c-4.27-4.27-6.4-9.62-6.4-16.07s2.13-11.8,6.4-16.07c4.27-4.27,9.63-6.4,16.07-6.4s11.79,2.13,16.04,6.4c4.25,4.27,6.37,9.63,6.37,16.07s-2.12,11.8-6.37,16.07Zm-25.39-5.81c2.43,2.7,5.52,4.05,9.29,4.05s6.87-1.36,9.32-4.08c2.45-2.72,3.67-6.13,3.67-10.23s-1.22-7.57-3.67-10.3c-2.45-2.72-5.56-4.08-9.32-4.08s-6.86,1.36-9.29,4.08c-2.43,2.72-3.64,6.15-3.64,10.3s1.21,7.56,3.64,10.26Z"/>
          <path class="cls-2" d="m178.02,58.79V14.85h9.48v35.78h19.96v8.16h-29.44Z"/>
          <path class="cls-2" d="m241.04,54.99c-3.16,2.87-7.42,4.3-12.78,4.3s-9.62-1.43-12.78-4.3c-3.16-2.87-4.74-7-4.74-12.4V14.85h8.85v27.75c0,2.8.79,4.92,2.35,6.34,1.57,1.42,3.67,2.13,6.31,2.13s4.75-.71,6.34-2.13c1.59-1.42,2.39-3.54,2.39-6.34V14.85h8.79v27.75c0,5.4-1.58,9.53-4.74,12.4Z"/>
          <path class="cls-2" d="m262.61,58.79V22.95h-12.99v-8.1h35.41v8.1h-12.99v35.85h-9.42Z"/>
          <path class="cls-2" d="m289.28,58.79V14.85h9.48v43.94h-9.48Z"/>
          <path class="cls-2" d="m343.67,52.89c-4.25,4.27-9.6,6.4-16.04,6.4s-11.8-2.13-16.07-6.4c-4.27-4.27-6.4-9.62-6.4-16.07s2.13-11.8,6.4-16.07c4.27-4.27,9.63-6.4,16.07-6.4s11.79,2.13,16.04,6.4c4.25,4.27,6.37,9.63,6.37,16.07s-2.12,11.8-6.37,16.07Zm-25.39-5.81c2.43,2.7,5.52,4.05,9.29,4.05s6.87-1.36,9.32-4.08c2.45-2.72,3.67-6.13,3.67-10.23s-1.22-7.57-3.67-10.3c-2.45-2.72-5.56-4.08-9.32-4.08s-6.86,1.36-9.29,4.08-3.64,6.15-3.64,10.3,1.21,7.56,3.64,10.26Z"/>
          <path class="cls-2" d="m356.31,58.79V14.85h10.04l17.64,29.07V14.85h9.42v43.94h-10.04l-17.64-29.07v29.07h-9.42Z"/>
          <path class="cls-2" d="m428.55,55.68c-3.01,2.41-7.01,3.61-11.99,3.61s-9.01-1.4-12.08-4.21c-3.08-2.8-4.72-6.55-4.93-11.24h9.04c.21,2.26,1.01,4.04,2.42,5.34,1.4,1.3,3.25,1.95,5.56,1.95,2.13,0,3.84-.44,5.12-1.32,1.28-.88,1.91-2.13,1.91-3.77,0-1.13-.42-2.07-1.25-2.83-.84-.75-1.93-1.34-3.26-1.76-1.34-.42-2.82-.81-4.43-1.16s-3.23-.83-4.86-1.41c-1.63-.59-3.12-1.33-4.46-2.23-1.34-.9-2.43-2.19-3.26-3.86-.84-1.67-1.26-3.68-1.26-6.03,0-3.64,1.42-6.62,4.27-8.95,2.85-2.32,6.49-3.48,10.92-3.48,4.73,0,8.57,1.25,11.52,3.77s4.49,5.86,4.61,10.04h-8.98c-.17-1.76-.88-3.15-2.13-4.17-1.26-1.02-2.93-1.54-5.02-1.54-1.84,0-3.31.4-4.39,1.19-1.09.8-1.63,1.84-1.63,3.14,0,1.42.57,2.56,1.73,3.42,1.15.86,2.57,1.44,4.27,1.76,1.69.31,3.55.75,5.56,1.32,2.01.57,3.86,1.22,5.56,1.98,1.7.75,3.12,2.04,4.27,3.86,1.15,1.82,1.73,4.09,1.73,6.81,0,4.1-1.51,7.36-4.52,9.76Z"/>
          <path class="cls-2" d="m439.36,49.75h9.48v9.04h-9.48v-9.04Z"/>
        </g>
      </g>
    </g>
  </g>
</svg>